<?xml version="1.0" encoding="utf-8"?>
<!-- Generator: Adobe Illustrator 20.0.0, SVG Export Plug-In . SVG Version: 6.00 Build 0)  -->
<svg version="1.1" id="Layer_1" xmlns="http://www.w3.org/2000/svg" xmlns:xlink="http://www.w3.org/1999/xlink" x="0px" y="0px"
	 viewBox="0 0 40 124.4" style="enable-background:new 0 0 40 124.4;" xml:space="preserve">
<style type="text/css">
	.st0{fill:#BCB187;}
	.st1{fill:#0F4583;}
	.st2{fill:#FFFFFF;}
</style>
<path class="st0" d="M19,41h-1.2c-2.2,0-4.1,0.4-5.5,1.2C5.8,45.4,6.5,54.7,0.2,60.9c6.3,6.2,5.6,15.5,12,18.8
	c1.5,0.7,3.5,1.1,5.5,1.2h1.2V41H19z"/>
<path class="st0" d="M27.7,42.3c-1.5-0.8-3.5-1.2-5.5-1.2h-1.2v39.9h1c2.2,0,4.2-0.4,5.6-1.2c6.4-3.3,5.8-12.6,12.1-18.7
	C33.5,54.8,34.1,45.5,27.7,42.3z"/>
<path class="st1" d="M19,83h-1.2c-2.2,0-4.1,0.4-5.5,1.2c-6.5,3.2-5.9,12.5-12.1,18.7c6.3,6.2,5.6,15.5,12,18.8
	c1.5,0.7,3.5,1.1,5.5,1.2h1.2V83H19z"/>
<path class="st1" d="M27.7,84.3c-1.5-0.8-3.5-1.2-5.5-1.2h-1.2v39.9h1c2.2,0,4.2-0.4,5.6-1.2c6.4-3.3,5.8-12.6,12.1-18.7
	C33.5,96.8,34.1,87.5,27.7,84.3z"/>
<path class="st2" d="M19,0h-1.2c-2.2,0-4.1,0.4-5.5,1.2C5.8,4.4,6.4,13.7,0.1,19.9c6.3,6.2,5.6,15.5,12,18.8
	c1.5,0.7,3.5,1.1,5.5,1.2h1.2V0H19z"/>
<path class="st2" d="M27.7,1.3c-1.5-0.8-3.5-1.2-5.5-1.2H21V40h1c2.2,0,4.2-0.4,5.6-1.2c6.4-3.3,5.8-12.6,12.1-18.7
	C33.5,13.8,34.1,4.5,27.7,1.3z"/>
</svg>
